<svg t="1615530351982" class="icon" viewBox="0 0 1024 1024" version="1.1" xmlns="http://www.w3.org/2000/svg" p-id="10528" width="200" height="200"><path d="M928 768c0 65.92-103.584 122.496-251.52 147.008l-20.48 3.136A1030.016 1030.016 0 0 1 512 928c-50.624 0-99.136-3.488-144-9.856l-20.48-3.136C199.616 890.496 96 833.92 96 768c0-49.248 57.856-93.312 148.832-122.656l47.36 52.64-0.256 0.064-15.264 4.096a617.6 617.6 0 0 0-7.36 2.08l-14.08 4.32-6.72 2.24-12.832 4.48a423.36 423.36 0 0 0-6.08 2.336l-11.52 4.64C181.28 737.92 160 754.56 160 768c0 12.8 19.2 28.48 52.672 43.392l11.04 4.704c3.84 1.536 7.84 3.072 11.968 4.608l12.8 4.512 13.696 4.416c4.704 1.44 9.536 2.848 14.496 4.224l15.264 4.096 16 3.84c13.632 3.136 28 6.08 43.04 8.64l18.304 2.976 18.912 2.656 19.456 2.336a970.016 970.016 0 0 0 208.704 0l19.456-2.336 18.88-2.656 18.336-2.976c15.04-2.56 29.408-5.504 43.04-8.64l16-3.84 15.264-4.096a617.6 617.6 0 0 0 7.36-2.08l14.08-4.32 6.72-2.24 12.832-4.48 6.08-2.336 11.52-4.64C842.72 798.08 864 781.44 864 768c0-12.8-19.2-28.48-52.672-43.392l-11.04-4.704c-3.84-1.536-7.84-3.072-11.968-4.608l-12.8-4.512-13.696-4.416c-4.704-1.44-9.536-2.848-14.496-4.224l-15.264-4.096-0.256-0.064 47.36-52.608C870.208 674.72 928 718.72 928 768z" fill="#e6e6e6" p-id="10529"></path><path d="M512 96a288 288 0 0 1 288 288c0 128-96 266.656-288 416-192-149.344-288-288-288-416a288 288 0 0 1 288-288z m0 64a224 224 0 0 0-224 224c0 94.592 70.816 205.312 218.016 328.96l5.952 4.928 6.016-4.96c143.584-120.608 214.528-228.928 217.888-321.984L736 384a224 224 0 0 0-224-224z" fill="#e6e6e6" p-id="10530"></path><path d="M512 256a128 128 0 1 1 0 256 128 128 0 0 1 0-256z m0 64a64 64 0 1 0 0 128 64 64 0 0 0 0-128z" fill="#e6e6e6" p-id="10531"></path></svg>