<svg t="1615532519787" class="icon" viewBox="0 0 1024 1024" version="1.1" xmlns="http://www.w3.org/2000/svg" p-id="1706" width="200" height="200"><path d="M858.4 943.9H137.2c-12.7 0-23-10.3-23-23V129c0-12.7 10.3-23 23-23s23 10.3 23 23v768.9h698.2c12.7 0 23 10.3 23 23s-10.3 23-23 23z" p-id="1707" fill="#dbdbdb"></path><path d="M137 66l37 63h-74z m784 855l-63 37v-74zM287 381h66c17.1 0 31 13.9 31 31v354c0 17.1-13.9 31-31 31h-66c-17.1 0-31-13.9-31-31V412c0-17.1 13.9-31 31-31z m204-188h66c17.1 0 31 13.9 31 31v542c0 17.1-13.9 31-31 31h-66c-17.1 0-31-13.9-31-31V224c0-17.1 13.9-31 31-31z m204 276h66c17.1 0 31 13.9 31 31v266c0 17.1-13.9 31-31 31h-66c-17.1 0-31-13.9-31-31V500c0-17.1 13.9-31 31-31z" p-id="1708" fill="#dbdbdb"></path></svg>