<svg t="1608605243443" class="icon" viewBox="0 0 1282 1024" version="1.1" xmlns="http://www.w3.org/2000/svg" p-id="1903" width="200" height="200"><path d="M1265.177 953.49L906.216 435.88a14.423 14.423 0 0 0-5.609-5.609 120.989 120.989 0 0 0-60.094-8.012 35.255 35.255 0 0 0-31.249 30.447 56.889 56.889 0 0 0 9.615 46.473c7.212 9.615 15.224 18.429 22.436 27.243l8.813 11.217a7.211 7.211 0 0 1 0 12.019 32.851 32.851 0 0 0-12.018 12.019 64.1 64.1 0 0 0-6.41 20.03c0 28.045-7.212 56.089-11.218 80.126a205.922 205.922 0 0 1-8.013 36.056 30.448 30.448 0 0 1-27.242 23.237 12.019 12.019 0 0 0-13.621 15.224 118.585 118.585 0 0 1-8.814 48.876c-6.41 17.627-13.621 34.454-20.031 52.081s-9.615 31.25-13.622 47.274a19.23 19.23 0 0 0 8.013 20.031l24.037 20.833a119.387 119.387 0 0 1 16.025 18.429c5.61 8.012 0 13.621-7.21 15.224H626.578l-244.382-4.808-348.544-8.814a12.019 12.019 0 0 0-8.013 0 133.81 133.81 0 0 0-20.832 24.84 36.056 36.056 0 0 0 31.248 52.882h1216.3a28.044 28.044 0 0 0 29.647-17.628v-16.826a240.376 240.376 0 0 0-16.826-34.454z" fill="" p-id="1904"></path><path d="M58.491 907.818a60.895 60.895 0 0 0 60.896-24.037 150.635 150.635 0 0 0 18.428-35.255 1048.038 1048.038 0 0 1 102.56-205.12 320.5 320.5 0 0 1 32.852-40.063 18.429 18.429 0 0 1 28.845 0 213.934 213.934 0 0 1 16.025 18.429 31.249 31.249 0 0 1 6.41 20.832v228.357a32.05 32.05 0 0 0 32.05 36.857 541.646 541.646 0 0 0 68.107 0 80.125 80.125 0 0 0 23.236-6.41 45.671 45.671 0 0 0 32.851-42.466 466.329 466.329 0 0 0 0-48.876c0-72.113 0-144.226-4.006-216.338a24.038 24.038 0 0 0 0-9.615l-32.05-63.3v-6.41l200.313 135.412a22.435 22.435 0 0 1 6.41 8.814 380.595 380.595 0 0 0 20.031 41.665 20.031 20.031 0 0 0 33.653 4.808 160.25 160.25 0 0 0 57.69-90.542 24.038 24.038 0 0 0-19.23-32.851 141.02 141.02 0 0 0-32.852-5.609 109.772 109.772 0 0 1-94.547-54.485 335.725 335.725 0 0 0-31.25-40.864 190.698 190.698 0 0 1-46.472-93.746c0-16.025 0-32.852-5.608-49.678a151.437 151.437 0 0 0-41.666-98.554 298.066 298.066 0 0 0 33.653-5.609A118.585 118.585 0 0 0 608.951 88.94a113.778 113.778 0 0 0-128.2-87.336 118.585 118.585 0 0 0-96.15 129.001A131.405 131.405 0 0 0 409.44 192.3a320.5 320.5 0 0 0-169.064 4.808A374.986 374.986 0 0 0 96.95 270.823a85.734 85.734 0 0 0-16.826 20.031 24.839 24.839 0 0 0 5.609 38.46 72.113 72.113 0 0 0 16.025 11.218l58.491 23.236a194.704 194.704 0 0 1 25.64 14.423 16.826 16.826 0 0 1 8.013 11.217 290.854 290.854 0 0 1 0 38.46 193.903 193.903 0 0 1-33.653 67.306A1267.58 1267.58 0 0 0 68.106 691.48a814.873 814.873 0 0 0-44.068 172.27 39.261 39.261 0 0 0 33.652 43.267zM441.49 431.074l16.826-72.113a294.86 294.86 0 0 0 34.454 110.573l-49.678-33.653a5.609 5.609 0 0 1 0-4.807zM193.903 295.662l94.548-20.031-37.66 59.292-56.888-39.261z" fill="" p-id="1905"></path></svg>