<svg t="1608605318536" class="icon" viewBox="0 0 1024 1024" version="1.1" xmlns="http://www.w3.org/2000/svg" p-id="2667" width="200" height="200"><path d="M146.285714 329.142857h731.428572v73.142857H146.285714v219.428572h731.428572v73.142857H146.285714v218.038857h731.428572v-804.571429H146.285714V329.142857zM109.714286 35.181714h804.571428a36.571429 36.571429 0 0 1 36.571429 36.571429v877.714286a36.571429 36.571429 0 0 1-36.571429 36.571428H109.714286a36.571429 36.571429 0 0 1-36.571429-36.571428v-877.714286a36.571429 36.571429 0 0 1 36.571429-36.571429z m146.285714 220.818286a36.571429 36.571429 0 0 1 0-73.142857H365.714286a36.571429 36.571429 0 0 1 0 73.142857H256z m0 291.181714a36.571429 36.571429 0 1 1 0-73.142857H365.714286a36.571429 36.571429 0 0 1 0 73.142857H256z m0 293.961143a36.571429 36.571429 0 1 1 0-73.142857H365.714286a36.571429 36.571429 0 1 1 0 73.142857H256z" p-id="2668"></path></svg>