<svg t="1615530186486" class="icon" viewBox="0 0 1024 1024" version="1.1" xmlns="http://www.w3.org/2000/svg" p-id="9354" width="200" height="200"><path d="M881.28 512c0-44.842667 19.84-85.162667 51.456-113.066667a40.832 40.832 0 0 0 8.533333-51.285333l-70.613333-120.32a40.96 40.96 0 0 0-47.786667-18.218667 159.914667 159.914667 0 0 1-48.042666 7.338667c-75.093333 0-137.813333-51.584-152.917334-120.362667a40.874667 40.874667 0 0 0-39.893333-32.085333h-140.032c-19.2 0-35.797333 13.354667-39.893333 32.085333C386.944 164.864 324.266667 216.448 249.173333 216.448c-16.768 0-32.938667-2.56-48.085333-7.338667a40.96 40.96 0 0 0-47.786667 18.261334L82.773333 347.648a40.832 40.832 0 0 0 8.490667 51.285333A150.4 150.4 0 0 1 142.72 512a150.4 150.4 0 0 1-51.456 113.066667 40.832 40.832 0 0 0-8.533333 51.285333l70.613333 120.32a40.96 40.96 0 0 0 47.786667 18.218667 159.914667 159.914667 0 0 1 48.042666-7.338667c75.093333 0 137.813333 51.584 152.917334 120.362667 4.096 18.773333 20.736 32.085333 39.893333 32.085333h140.032c19.2 0 35.797333-13.354667 39.893333-32.085333 15.146667-68.778667 77.824-120.362667 152.917334-120.362667 16.768 0 32.938667 2.56 48.085333 7.338667a40.96 40.96 0 0 0 47.786667-18.261334l70.528-120.277333a40.832 40.832 0 0 0-8.490667-51.285333A150.4 150.4 0 0 1 881.28 512z m-56.917333 237.056a224.64 224.64 0 0 0-134.826667 11.306667 219.861333 219.861333 0 0 0-69.973333 45.994666A215.466667 215.466667 0 0 0 564.266667 896h-104.533334a215.466667 215.466667 0 0 0-55.338666-89.6 222.549333 222.549333 0 0 0-155.264-62.848c-16.64 0-33.28 1.834667-49.493334 5.546667l-52.352-89.258667a213.376 213.376 0 0 0 0-295.68L199.68 274.944a224.682667 224.682667 0 0 0 134.826667-11.306667 219.861333 219.861333 0 0 0 69.973333-45.994666A215.466667 215.466667 0 0 0 459.733333 128h104.533334a215.466667 215.466667 0 0 0 55.338666 89.6 222.549333 222.549333 0 0 0 155.264 62.848c16.64 0 33.28-1.834667 49.493334-5.546667l52.352 89.258667a213.376 213.376 0 0 0 0 295.68l-52.352 89.216zM512 320a192 192 0 1 0 0 384 192 192 0 0 0 0-384z m90.496 282.496A127.146667 127.146667 0 0 1 512 640a127.146667 127.146667 0 0 1-90.496-37.504A127.146667 127.146667 0 0 1 384 512c0-34.176 13.312-66.346667 37.504-90.496A127.146667 127.146667 0 0 1 512 384a127.146667 127.146667 0 0 1 90.496 37.504A127.146667 127.146667 0 0 1 640 512a127.146667 127.146667 0 0 1-37.504 90.496z" p-id="9355"></path></svg>