<svg t="1608184204851" class="icon" viewBox="0 0 1024 1024" version="1.1" xmlns="http://www.w3.org/2000/svg" p-id="2433" width="200" height="200"><path d="M335.200669 56.608411c-65.760947 45.809141-114.259581 113.779499-122.152546 231.802305h-48.44185v81.619148h697.533731V288.410716h-44.895436c-8.713751-116.598046-58.022847-190.060958-130.241674-235.482936l-33.414759 77.060948 33.414759-77.060948C634.384844 15.481363 561.959529 0 508.365829 0c-54.982326 0-133.359628 25.093333-173.16516 56.608411m490.349839 274.126977H205.573294l-0.11873-9.926862h40.208181c0-82.883881 19.745319-170.65118 98.411703-231.167358l60.64007 117.682103 37.007632-19.41494L384.416846 65.43573c40.920561-24.06606 77.866247-29.90448 128.95113-30.415535 58.502929-0.588488 98.153595 11.604569 138.382425 34.565924L594.920017 187.144329l33.017271 19.136183 62.61202-114.213121c78.439249 59.860581 98.644001 144.468629 98.644001 228.741135h36.259117l0.098082 9.926862zM665.739895 652.50924c-66.173921 99.103435-107.605537 198.160411-107.605537 198.160411s-9.570672-46.836413-11.903976-90.090278h-28.691368c0.010324 76.968029 27.540203 185.972515 27.540203 185.972516s86.549026-164.477219 141.38681-257.928072c205.464888 34.658843 211.416876 171.095127 211.416876 331.793634H126.271962c0-160.698507 24.102195-306.963572 206.290836-331.793634 29.832209 27.003337 150.193481 257.928072 150.193481 257.928072s26.703931-106.320156 26.714255-185.972516h-29.393424c-2.353952 43.630703-7.593559 87.153-7.593559 87.153 0-8.946049-44.83349-96.119698-110.991924-195.223133-287.6622 35.835819-267.612313 186.917193-267.612313 367.908211H932.872125c-0.005162-180.991017 20.514483-332.077554-267.13223-367.908211z" fill="" p-id="2434"></path><path d="M546.22522 764.420032l0.005162 0.113568h20.710646l20.545457-102.154281H439.579847l20.545457 102.154281h19.951806l0.005162-0.113568H546.22522z m3.933577-74.660537l-11.609731 47.399091h-50.0318l-11.609731-47.399091h73.251262z" fill="" p-id="2435"></path><path d="M241.491707 370.148594h0.072271c-0.010324-0.955002-0.07227-1.89968-0.072271-2.859845v2.859845zM789.425607 370.148594v-2.859845c0 0.960165-0.061946 1.904843-0.07227 2.859845h0.07227zM754.384764 368.641239l-477.89351 0.232298-0.160028 1.275057h478.2497l-0.196162-1.507355z" fill="" p-id="2436"></path><path d="M754.580926 374.17509c-7.820695 113.562687-99.531896 227.259591-239.700432 225.948399-145.63528-1.357652-222.830445-114.682879-235.116422-222.536201a57.780224 57.780224 0 0 1 0-8.868616l-38.200094 1.429922c0 133.906819 123.551496 269.24356 273.894679 269.24356s272.340865-120.289001 273.89468-269.24356h-34.777573c0.23746 1.904843 0.144541 2.008086 0.005162 4.026496z" fill="" p-id="2437"></path></svg>